<svg id="Layer_1" data-name="Layer 1" xmlns="http://www.w3.org/2000/svg" width="380" height="338" viewBox="0 0 380 338"><path d="M336.24,89.06c-24-27.87-66.83-61.39-136.41-66.78V12.1a9.68,9.68,0,0,0-9.68-9.69h0a9.7,9.7,0,0,0-9.69,9.68v9.82C109.67,24.69,66.68,58.4,42.83,86.9,12.87,122.71,2,162.83,2,181.05a2.82,2.82,0,0,0,3.75,2.68c.23-.07,23.16-7.83,46.37-6.35,23.06,1.47,41.39,12.51,41.57,12.62l.15.07a3,3,0,0,0,.41.18l.27.08a3.54,3.54,0,0,0,.47.07l.18,0h.06a3.29,3.29,0,0,0,.44,0l.24,0h0c.25-.07,24.61-6.87,49-5.16a127.56,127.56,0,0,1,32.79,7l-.07,84.41h0l0,21.51A12.93,12.93,0,0,1,164.68,311h0a12.92,12.92,0,0,1-12.91-12.93v-8.64a12.29,12.29,0,0,0-12.29-12.3h0a12.31,12.31,0,0,0-12.3,12.28V298a37.57,37.57,0,0,0,37.49,37.55h0a37.56,37.56,0,0,0,37.51-37.48l0-21.51h0l.08-84.41a127.89,127.89,0,0,1,32.81-7c24.41-1.68,48.75,5.18,49,5.25h0a1,1,0,0,0,.24,0,2.12,2.12,0,0,0,.43.06h.07l.19,0a3.25,3.25,0,0,0,.45-.06l.27-.08a3.12,3.12,0,0,0,.42-.18s.1,0,.14-.07c.19-.11,18.47-11.12,41.59-12.55s46.14,6.36,46.36,6.44a2.83,2.83,0,0,0,3.76-2.67C378.07,163.83,366.94,124.76,336.24,89.06Z"/></svg>