<?xml version="1.0" encoding="utf-8"?>
<!-- Generator: Adobe Illustrator 24.3.0, SVG Export Plug-In . SVG Version: 6.00 Build 0)  -->
<svg version="1.1" id="Icon" xmlns="http://www.w3.org/2000/svg" xmlns:xlink="http://www.w3.org/1999/xlink" x="0px" y="0px"
	 viewBox="0 0 24 24" style="enable-background:new 0 0 24 24;" xml:space="preserve">
<g id="Umbrella">
	<path d="M21.021,7.705c-0.238-0.499-0.834-0.708-1.333-0.472c-0.498,0.238-0.709,0.835-0.472,1.333
		c0.373,0.782,0.614,1.597,0.721,2.434h-3.548c-0.095-2.318-0.523-4.657-1.32-6.377c0.855,0.358,1.653,0.862,2.351,1.507
		c0.407,0.376,1.041,0.351,1.413-0.056c0.375-0.406,0.35-1.039-0.056-1.413C16.92,2.945,14.513,2,12,2C6.486,2,2,6.486,2,12
		c0,0.552,0.448,1,1,1h7.998v6c0,0.542-0.38,1-0.831,1s-0.831-0.458-0.831-1c0-0.552-0.448-1-1-1s-1,0.448-1,1
		c0,1.654,1.27,3,2.831,3s2.831-1.346,2.831-3v-6H21c0.552,0,1-0.448,1-1C22,10.512,21.671,9.066,21.021,7.705z M12.133,4.026
		C13.1,4.433,14.19,6.982,14.391,11H9.609c0.174-3.977,1.354-6.573,2.226-6.961C11.835,4.039,11.995,3.968,12.133,4.026z
		 M8.937,4.616C8.136,6.344,7.707,8.693,7.612,11h-3.55C4.424,8.11,6.338,5.699,8.937,4.616z"/>
</g>
</svg>
