<svg xmlns="http://www.w3.org/2000/svg" width="512" height="512" viewBox="0 0 512 512">
  <g>
    <path d="M256,9.69c0,48.82-130.89,96.46-163.25,59.41,32.36,37.05-37.29,157.68-86.86,150.46C55.46,226.78,79.65,364,36.05,390.64c43.6-26.68,150.3,62.85,133.09,111.67,17.21-48.82,156.51-48.82,173.72,0C325.65,453.49,432.35,364,476,390.64c-43.6-26.68-19.41-163.86,30.16-171.08-49.57,7.22-119.22-113.41-86.86-150.46C386.89,106.15,256,58.51,256,9.69Z"/>
    <g>
      <circle cx="256" cy="262.9" r="124.53"/>
      <path d="M256,389.9a127,127,0,1,1,127-127A127.14,127.14,0,0,1,256,389.9Zm0-249.06A122.06,122.06,0,1,0,378.06,262.9,122.19,122.19,0,0,0,256,140.84Z" fill="#fff"/>
    </g>
  </g>
</svg>
