<?xml version="1.0" encoding="utf-8"?>
<!-- Generator: Adobe Illustrator 25.4.1, SVG Export Plug-In . SVG Version: 6.00 Build 0)  -->
<svg version="1.1" id="Layer_1" xmlns="http://www.w3.org/2000/svg" xmlns:xlink="http://www.w3.org/1999/xlink" x="0px" y="0px"
	 viewBox="0 0 512 455.4" style="enable-background:new 0 0 512 455.4;" xml:space="preserve">
<style type="text/css">
	.st0{fill:#FFFFFF;stroke:#000000;stroke-width:5.66;stroke-linecap:round;stroke-linejoin:round;}
	.st1{fill:none;stroke:#000000;stroke-width:5.66;stroke-linecap:round;stroke-linejoin:round;}
</style>
<path class="st0" d="M256.2,7.1L256.2,7.1c5.1,0,9.2,4.1,9.2,9.2c0,0,0,0,0,0v47.4h-18.5V16.4C246.9,11.3,251,7.1,256.2,7.1
	C256.2,7.1,256.2,7.1,256.2,7.1z"/>
<path class="st0" d="M221.9,448.3c-25.8-0.1-46.7-21-46.7-46.8v-11.6c0-7,5.7-12.8,12.8-12.8c7,0,12.8,5.7,12.8,12.8v11.6
	c0,11.7,9.5,21.2,21.2,21.2s21.2-9.5,21.2-21.2l0.2-213.3c-0.2-7,5.3-12.9,12.3-13.2c7-0.2,12.9,5.3,13.2,12.3c0,0.3,0,0.6,0,0.8
	l-0.2,213.3C268.6,427.4,247.7,448.3,221.9,448.3L221.9,448.3z"/>
<line class="st1" x1="243.1" y1="372.6" x2="268.6" y2="372.6"/>
<path class="st0" d="M256.2,33.1c-30.3,0-128,122.9-128,219.6c0,0-25.3-15.5-57.7-17.5C38,233.2,6.5,244,6.5,244
	C6.5,193.6,67.7,32.9,256.2,33.1z"/>
<path class="st0" d="M256.2,33.1L256,261.6c-19-8.9-39.5-14.3-60.5-15.9c-34-2.4-67.3,7.1-67.3,7.1C128.3,156,225.8,33.1,256.2,33.1
	"/>
<path class="st0" d="M256.2,33.1c30.3,1.2,127.7,123.1,127.6,219.9c0,0,25.3-15.5,57.8-17.5s63.9,8.9,63.9,8.9
	C505.5,194,440.8,40.2,256.2,33.1z"/>
<path class="st0" d="M256.2,33.1L256,261.6c19.1-8.8,39.5-14.2,60.5-15.8c34-2.3,67.4,7.2,67.4,7.2
	C383.9,156.2,286.6,33.1,256.2,33.1"/>
</svg>
