<svg version="1.1" id="Icon" xmlns="http://www.w3.org/2000/svg" xmlns:xlink="http://www.w3.org/1999/xlink" x="0px" y="0px"
	 viewBox="0 0 480 480" style="enable-background:new 0 0 480 480;" width="480" height="480" xml:space="preserve">
	<path d="M420.4,154.1c-4.8-10-16.7-14.2-26.7-9.4c-10,4.8-14.2,16.7-9.4,26.7c7.5,15.6,12.3,31.9,14.4,48.7h-71
		c-1.9-46.4-10.5-93.1-26.4-127.5c17.1,7.2,33.1,17.2,47,30.1c8.1,7.5,20.8,7,28.3-1.1c7.5-8.1,7-20.8-1.1-28.3
		C338.4,58.9,290.3,40,240,40C129.7,40,40,129.7,40,240c0,11,9,20,20,20h160v120c0,10.8-7.6,20-16.6,20s-16.6-9.2-16.6-20
		c0-11-9-20-20-20c-11,0-20,9-20,20c0,33.1,25.4,60,56.6,60s56.6-26.9,56.6-60V260h160c11,0,20-9,20-20
		C440,210.2,433.4,181.3,420.4,154.1z M242.7,80.5c19.3,8.1,41.1,59.1,45.2,139.5h-95.6c3.5-79.5,27.1-131.5,44.5-139.2
		C236.7,80.8,239.9,79.4,242.7,80.5z M178.7,92.3c-16,34.6-24.6,81.5-26.5,127.7h-71C88.5,162.2,126.8,114,178.7,92.3z"/>
</svg>
