<svg id="Layer_1" data-name="Layer 1"
    xmlns="http://www.w3.org/2000/svg" width="380" height="338" viewBox="0 0 380 338">
    <path d="M190.16,5.24h0A6.85,6.85,0,0,1,197,12.1l0,35.22H183.26l0-35.22A6.85,6.85,0,0,1,190.16,5.24Z" fill="#fff" stroke="#000" stroke-linecap="round" stroke-linejoin="round" stroke-width="5.66"/>
    <path d="M164.65,332.76A34.72,34.72,0,0,1,130,298V289.4a9.47,9.47,0,0,1,18.94,0v8.64a15.75,15.75,0,1,0,31.5,0l.14-158.32a9.47,9.47,0,1,1,18.93,0l-.14,158.32A34.72,34.72,0,0,1,164.65,332.76Z" fill="#fff" stroke="#000" stroke-linecap="round" stroke-linejoin="round" stroke-width="5.66"/>
    <line x1="180.45" y1="276.58" x2="199.38" y2="276.6" fill="none" stroke="#000" stroke-linecap="round" stroke-linejoin="round" stroke-width="5.66"/>
    <path d="M190.14,24.53c-22.52,0-95,91.23-95,163.06,0,0-18.78-11.5-42.87-13s-47.47,6.51-47.47,6.51C4.81,143.65,50.22,24.41,190.14,24.53Z" fill="#fff" stroke="#000" stroke-linecap="round" stroke-linejoin="round" stroke-width="5.66"/>
    <path d="M190.14,24.53,190,194.13a130.37,130.37,0,0,0-44.89-11.8c-25.22-1.78-50,5.26-50,5.26.06-71.83,72.5-163.08,95-163.06" fill="#fff" stroke="#000" stroke-linecap="round" stroke-linejoin="round" stroke-width="5.66"/>
    <path d="M190.14,24.53c22.5.87,94.79,91.4,94.73,163.23,0,0,18.8-11.47,42.89-13s47.46,6.59,47.46,6.59C375.25,144,327.22,29.81,190.14,24.53Z" fill="#fff" stroke="#000" stroke-linecap="round" stroke-linejoin="round" stroke-width="5.66"/>
    <path d="M190.14,24.53,190,194.13a130.51,130.51,0,0,1,44.91-11.72c25.23-1.74,50,5.35,50,5.35.06-71.83-72.22-163.21-94.73-163.23" fill="#fff" stroke="#000" stroke-linecap="round" stroke-linejoin="round" stroke-width="5.66"/>
</svg>