<?xml version="1.0" encoding="utf-8"?>
<!-- Generator: Adobe Illustrator 25.4.1, SVG Export Plug-In . SVG Version: 6.00 Build 0)  -->
<svg version="1.1" id="Layer_1" xmlns="http://www.w3.org/2000/svg" xmlns:xlink="http://www.w3.org/1999/xlink" x="0px" y="0px"
	 viewBox="0 0 512 455.4" style="enable-background:new 0 0 512 455.4;" xml:space="preserve">
<path d="M453,120c-32.3-37.5-90-82.7-183.7-90V16.4c0-7.2-5.8-13-13-13.1c0,0,0,0,0,0l0,0c-7.2,0-13,5.8-13.1,13v13.2
	c-95.4,3.7-153.3,49.2-185.4,87.5c-40.4,48.2-55,102.3-55,126.8c0,2.1,1.7,3.8,3.8,3.8c0.4,0,0.9-0.1,1.3-0.2
	C8.1,247.5,39,237,70.3,239c31.1,2,55.8,16.9,56,17l0.2,0.1c0.2,0.1,0.4,0.2,0.6,0.2l0.4,0.1c0.2,0,0.4,0.1,0.6,0.1h0.2h0.1
	c0.2,0,0.4,0,0.6,0h0.3l0,0c0.3-0.1,33.1-9.3,66-7c15.1,1.2,29.9,4.4,44.2,9.4l-0.1,113.7l0,0v29c-0.1,9.6-7.9,17.3-17.4,17.3l0,0
	c-9.6,0-17.4-7.8-17.4-17.4l0,0v-11.6c0-9.1-7.4-16.6-16.5-16.6c0,0,0,0,0,0l0,0c-9.1,0-16.5,7.4-16.6,16.5v11.6
	c0,27.9,22.6,50.5,50.5,50.6l0,0c27.9,0,50.5-22.6,50.5-50.5v-29l0,0l0.1-113.7c14.3-5.1,29.1-8.2,44.2-9.4c32.9-2.3,65.7,7,66,7.1
	l0,0c0.1,0,0.2,0,0.3,0c0.2,0,0.4,0.1,0.6,0.1h0.1h0.3c0.2,0,0.4,0,0.6-0.1l0.4-0.1c0.2-0.1,0.4-0.1,0.6-0.2c0,0,0.1,0,0.2-0.1
	c0.3-0.1,24.9-15,56-16.9c31.1-1.9,62.2,8.6,62.4,8.7c2,0.7,4.2-0.4,4.9-2.3c0.1-0.4,0.2-0.8,0.2-1.2
	C509.3,220.7,494.3,168.1,453,120z"/>
</svg>
